Results
version=1
nRows=4
nColumns=85
inDegrees=yes
endheader
time	thorax_sagittal	thorax_frontal	thorax_horizontal	thorax_transx	thorax_transy	thorax_transz	cervix_sagittal	cervix_frontal	cervix_horizontal	caput_sagittal	caput_frontal	caput_horizontal	abdomen_sagittal	abdomen_frontal	abdomen_horizontal	cauda_sagittal	cauda_frontal	cauda_horizontal	left_r_m_superioris_sagittal	left_r_m_superioris_frontal	left_r_m_superioris_horizontal	left_r_m_superioris_transx	left_r_m_superioris_transy	left_r_m_superioris_transz	left_r_deltoidea_sagittal	left_r_deltoidea_frontal	left_r_deltoidea_horizontal	left_r_cubitalis_sagittal	left_r_cubitalis_frontal	left_r_cubitalis_horizontal	left_r_carpalis_sagittal	left_r_carpalis_frontal	left_r_carpalis_horizontal	left_r_forepaw_sagittal	left_r_forepaw_frontal	left_r_forepaw_horizontal	right_r_m_superioris_sagittal	right_r_m_superioris_frontal	right_r_m_superioris_horizontal	right_r_m_superioris_transx	right_r_m_superioris_transy	right_r_m_superioris_transz	right_r_deltoidea_sagittal	right_r_deltoidea_frontal	right_r_deltoidea_horizontal	right_r_cubitalis_sagittal	right_r_cubitalis_frontal	right_r_cubitalis_horizontal	right_r_carpalis_sagittal	right_r_carpalis_frontal	right_r_carpalis_horizontal	right_r_forepaw_sagittal	right_r_forepaw_frontal	right_r_forepaw_horizontal	m_inferioris_sagittal	m_inferioris_frontal	m_inferioris_horizontal	m_inferioris_transx	m_inferioris_transy	m_inferioris_transz	left_r_coxae_sagittal	left_r_coxae_frontal	left_r_coxae_horizontal	left_r_genus_sagittal	left_r_genus_frontal	left_r_genus_horizontal	left_r_talocruralis_sagittal	left_r_talocruralis_frontal	left_r_talocruralis_horizontal	left_r_hindpaw_sagittal	left_r_hindpaw_frontal	left_r_hindpaw_horizontal	right_r_coxae_sagittal	right_r_coxae_frontal	right_r_coxae_horizontal	right_r_genus_sagittal	right_r_genus_frontal	right_r_genus_horizontal	right_r_talocruralis_sagittal	right_r_talocruralis_frontal	right_r_talocruralis_horizontal	right_r_hindpaw_sagittal	right_r_hindpaw_frontal	right_r_hindpaw_horizontal
      5.25600000	    -90.14654499	      6.69774460	    -34.47300816	     -0.62549045	      0.29497847	     -4.29697074	     -0.16556864	    -25.20975310	     17.43692116	      2.91029268	     -8.22887646	    -45.19751462	      3.47315041	     -3.55460550	     19.86190867	      2.40428919	     -2.46671117	     -0.71560266	    -48.23628658	    -32.12222060	      0.33201571	      0.04103970	     -0.17506449	      0.09276984	     93.32053551	     -2.83802252	    -17.14346611	    -75.16646154	     26.90153833	      8.96947014	    -25.34485433	    -12.29692857	      0.80000000	      0.00000000	      0.00000000	      0.00000000	    -27.34437055	     32.91590401	     16.15684635	     -0.02478289	     -0.18283512	      0.09736324	     93.42462866	      2.12776459	     33.79188506	    -55.14792301	    -22.51985524	     -9.66687206	    -10.58120412	    -10.75715251	      0.80000000	      0.00000000	      0.00000000	      0.00000000	     32.37937466	     -0.73664298	     -3.29582281	     -0.00513059	     -0.06206892	      0.01813055	    -77.39464299	     -9.81164956	     -1.35750820	    100.61699449	      8.08983259	     -3.82623253	    -74.17688370	      8.42728102	      2.30000000	      0.00000000	      0.00000000	      0.00000000	    -91.69113923	      1.56898394	     -2.82811489	    112.70537585	     -6.11965041	      3.72869480	    -72.83270356	     -2.25811783	      2.30000000	      0.00000000	      0.00000000	      0.00000000
      5.27266667	    -91.24066722	      7.77381676	    -33.48530476	     -0.63893379	      0.29181100	     -4.27894429	      0.99161112	    -25.90119120	     16.62379585	      3.72560087	     -9.01986077	    -45.49035536	      6.32270783	     -2.64372138	     18.41659937	      1.19321041	     -2.33895635	      0.07410479	    -44.55918425	    -32.68488992	      0.21848377	      0.04032574	     -0.17576752	      0.09269146	     95.66702151	     -2.97546608	    -17.58258143	    -75.97201397	     27.18354800	      7.91793100	    -28.96831506	    -11.52929396	      0.80000000	      0.00000000	      0.00000000	      0.00000000	    -26.13910451	     32.78560405	     15.68638570	     -0.02509944	     -0.18287048	      0.09701365	     94.57134841	      1.64671197	     33.69479983	    -55.15959010	    -21.56738051	     -8.58161175	     -5.37335619	    -11.43400596	      0.80000000	      0.00000000	      0.00000000	      0.00000000	     31.19754328	     -0.21235694	     -2.68455735	     -0.00397874	     -0.06302125	      0.01951010	    -75.06083830	    -10.21988223	     -2.17048511	    101.04288575	      7.40378800	     -3.10305787	    -71.78881884	      7.57177699	      2.30000000	      0.00000000	      0.00000000	      0.00000000	    -94.15382068	      2.73061993	     -3.72218641	    109.61478518	     -7.12850341	      3.95613761	    -71.85215011	     -2.48296653	      2.30000000	      0.00000000	      0.00000000	      0.00000000
      5.28933333	    -91.00369826	      8.04431929	    -33.12114688	     -0.64871992	      0.29285175	     -4.26391071	      1.26154482	    -26.24615407	     16.23525438	      3.79901531	     -9.16517859	    -45.11600143	      5.88806888	     -2.85240536	     17.66961645	      1.26116685	     -2.30058597	      0.49279452	    -42.53662034	    -32.61319998	      0.90550777	      0.04062456	     -0.17666672	      0.09416346	     97.44753562	     -2.23000085	    -16.86959231	    -73.96883250	     25.44483373	      5.17934119	    -34.80452329	     -8.13438661	      0.80000000	      0.00000000	      0.00000000	      0.00000000	    -26.21906125	     32.30315581	     15.12699630	     -0.02578526	     -0.18284079	      0.09645909	     98.78325129	      0.82554043	     31.77652962	    -66.92502164	    -19.41322406	     -3.59959629	     17.63219251	    -13.75384373	      0.80000000	      0.00000000	      0.00000000	      0.00000000	     31.27978264	      0.06120009	     -2.31542378	     -0.00340198	     -0.06385381	      0.02080343	    -72.30463060	    -10.55529333	     -2.68991617	    100.47691475	      6.88799215	     -3.19975068	    -71.13844705	      7.64669920	      2.30000000	      0.00000000	      0.00000000	      0.00000000	    -96.52834274	      4.02581849	     -4.18317817	    105.55952200	     -7.84107648	      3.87391751	    -70.44718532	     -2.38241866	      2.30000000	      0.00000000	      0.00000000	      0.00000000
      5.30600000	    -90.57129150	      8.28811651	    -32.70370199	     -0.65949906	      0.29494640	     -4.24963582	      1.40437836	    -25.74732555	     16.16639370	      3.68671482	     -8.92806326	    -45.83580500	      4.76754610	     -3.18825596	     16.46034725	      1.42136248	     -2.16028740	      0.89901521	    -41.27588820	    -33.22606683	      0.88119505	      0.04061937	     -0.17697407	      0.09440641	     99.02858457	     -2.26198280	    -16.89334310	    -73.22555426	     25.26222064	      4.80327568	    -37.13659982	     -7.96406819	      0.80000000	      0.00000000	      0.00000000	      0.00000000	    -26.98415416	     32.38030701	     15.04096925	     -0.02515734	     -0.18251772	      0.09565876	     98.26195582	      0.74572121	     32.02802678	    -77.13920725	    -20.61432496	     -1.41590073	     32.25313303	    -19.10474133	      0.80000000	      0.00000000	      0.00000000	      0.00000000	     31.47365996	      0.38583629	     -2.05781702	     -0.00225857	     -0.06375965	      0.02122335	    -69.75224184	    -11.21185276	     -3.27805722	    100.44593112	      6.37490641	     -2.81511950	    -69.09033814	      7.14711253	      2.30000000	      0.00000000	      0.00000000	      0.00000000	    -98.59435833	      5.15617165	     -4.63490717	    101.39270979	     -8.46846890	      3.87134713	    -67.31244112	     -2.33305887	      2.30000000	      0.00000000	      0.00000000	      0.00000000
